<?xml version="1.0" encoding="UTF-8"?>
<svg width="120px" height="120px" viewBox="0 0 120 120" version="1.1" xmlns="http://www.w3.org/2000/svg" xmlns:xlink="http://www.w3.org/1999/xlink">
    <!-- Generator: Sketch 49.3 (51167) - http://www.bohemiancoding.com/sketch -->
    <title>Sections / Features / Icons / icon-1</title>
    <desc>Created with Sketch.</desc>
    <defs>
        <linearGradient x1="125.549072%" y1="124.983866%" x2="-23.6338408%" y2="-28.0527417%" id="linearGradient-1">
            <stop stop-color="#0080E5" offset="0%"></stop>
            <stop stop-color="#00C652" offset="100%"></stop>
        </linearGradient>
        <linearGradient x1="125.549072%" y1="124.983866%" x2="-23.6338408%" y2="-28.0527417%" id="linearGradient-2">
            <stop stop-color="#0080E5" offset="0%"></stop>
            <stop stop-color="#00C652" offset="100%"></stop>
        </linearGradient>
    </defs>
    <g id="Sections-/-Features-/-Icons-/-icon-1" stroke="none" stroke-width="1" fill="none" fill-rule="evenodd">
        <path d="M52,56.5146061 C52,62.1331297 56.594498,66.7276277 62.2130216,66.7276277 C66.7244537,66.7276277 70.5543368,63.7488298 71.91369,59.6629402 L100.08631,59.6629402 C101.449408,63.7488298 105.279291,66.7276277 109.786978,66.7276277 C115.405502,66.7276277 120,62.1331297 120,56.5146061 C120,51.7471676 116.765196,47.7475782 112.340234,46.6403164 L112.340234,20.0873113 C116.765196,18.9802198 120,14.9808005 120,10.2130216 C120,4.59449798 115.405502,0 109.786978,0 C105.275546,0 101.445663,2.97879797 100.08631,7.06468748 L71.91369,7.06801182 C70.550592,2.98212231 66.7207089,0.00332433853 62.2130216,0.00332433853 C56.594498,0.00332433853 52,4.59782232 52,10.2163459 C52,14.9837844 55.2348044,18.9833739 59.6597662,20.0906357 L59.6597662,46.7304514 C55.3178703,47.8342237 52,51.833643 52,56.5145261 L52,56.5146061 Z M62.2130216,61.6211169 C59.4037598,61.6211169 57.1065108,59.3238679 57.1065108,56.5146061 C57.1065108,53.7053443 59.4037598,51.4080953 62.2130216,51.4080953 C65.0222834,51.4080953 67.3195324,53.7053443 67.3195324,56.5146061 C67.3195324,59.3238679 65.0222834,61.6211169 62.2130216,61.6211169 Z M114.9803,56.5146061 C114.9803,59.3238679 112.683051,61.6211169 109.873789,61.6211169 C107.064527,61.6211169 104.767278,59.3238679 104.767278,56.5146061 C104.767278,53.7053443 107.064527,51.4080953 109.873789,51.4080953 C112.683051,51.4080953 114.9803,53.7053443 114.9803,56.5146061 Z M109.873789,5.11076623 C112.683051,5.11076623 114.9803,7.40801522 114.9803,10.217277 C114.9803,13.0265388 112.683051,15.3237878 109.873789,15.3237878 C107.064527,15.3237878 104.767278,13.0265388 104.767278,10.217277 C104.767278,7.40801522 107.064527,5.11076623 109.873789,5.11076623 Z M72.2566773,12.0889835 L99.8301334,12.0889835 C100.594782,15.9188666 103.49048,19.0672007 107.320363,20.0047561 L107.320363,46.6445718 C103.576951,47.5821272 100.598153,50.7304613 99.8301334,54.5603444 L72.2566773,54.5570201 C71.4920283,50.727137 68.5963303,47.5788029 64.7664472,46.6412475 L64.7664472,20.0882424 C68.5963303,19.0676211 71.488658,16.0056721 72.2566773,12.0894039 L72.2566773,12.0889835 Z M57.1065108,10.217277 C57.1065108,7.40801522 59.4037598,5.11076623 62.2130216,5.11076623 C65.0222834,5.11076623 67.3195324,7.40801522 67.3195324,10.217277 C67.3195324,13.0265388 65.0222834,15.3237878 62.2130216,15.3237878 C59.4037598,15.3237878 57.1065108,13.0265388 57.1065108,10.217277 Z" id="design-copy" fill="url(#linearGradient-1)" fill-rule="nonzero" opacity="0.2"></path>
        <path d="M20,87.4877719 C20,94.0977997 25.4052917,99.5030914 32.0153195,99.5030914 C37.3228867,99.5030914 41.8286315,95.9986232 43.4278705,91.1916944 L76.5721295,91.1916944 C78.1757741,95.9986232 82.6815189,99.5030914 87.9846805,99.5030914 C94.5947083,99.5030914 100,94.0977997 100,87.4877719 C100,81.8790208 96.1943478,77.1736214 90.9885104,75.8709605 L90.9885104,44.632131 C96.1943478,43.3296703 100,38.6244712 100,33.0153195 C100,26.4052917 94.5947083,21 87.9846805,21 C82.6771133,21 78.1713685,24.5044682 76.5721295,29.311397 L43.4278705,29.315308 C41.8242259,24.5083792 37.3184811,21.003911 32.0153195,21.003911 C25.4052917,21.003911 20,26.4092027 20,33.0192305 C20,38.6279817 23.8056522,43.3333811 29.0114896,44.636042 L29.0114896,75.9770017 C23.9033768,77.2755573 20,81.9807565 20,87.4876778 L20,87.4877719 Z M32.0153195,93.4954317 C28.7103056,93.4954317 26.0076598,90.7927858 26.0076598,87.4877719 C26.0076598,84.182758 28.7103056,81.4801121 32.0153195,81.4801121 C35.3203334,81.4801121 38.0229793,84.182758 38.0229793,87.4877719 C38.0229793,90.7927858 35.3203334,93.4954317 32.0153195,93.4954317 Z M94.0944704,87.4877719 C94.0944704,90.7927858 91.3918246,93.4954317 88.0868107,93.4954317 C84.7817968,93.4954317 82.0791509,90.7927858 82.0791509,87.4877719 C82.0791509,84.182758 84.7817968,81.4801121 88.0868107,81.4801121 C91.3918246,81.4801121 94.0944704,84.182758 94.0944704,87.4877719 Z M88.0868107,27.0126661 C91.3918246,27.0126661 94.0944704,29.715312 94.0944704,33.0203259 C94.0944704,36.3253398 91.3918246,39.0279857 88.0868107,39.0279857 C84.7817968,39.0279857 82.0791509,36.3253398 82.0791509,33.0203259 C82.0791509,29.715312 84.7817968,27.0126661 88.0868107,27.0126661 Z M43.831385,35.2223335 L76.2707452,35.2223335 C77.1703322,39.7280783 80.5770357,43.4320008 85.0827805,44.5350071 L85.0827805,75.8759669 C80.6787654,76.9789732 77.1742972,80.6828957 76.2707452,85.1886405 L43.831385,85.1847295 C42.931798,80.6789847 39.5250945,76.9750622 35.0193497,75.8720559 L35.0193497,44.6332264 C39.5250945,43.4324954 42.927833,39.8302025 43.831385,35.2228281 L43.831385,35.2223335 Z M26.0076598,33.0203259 C26.0076598,29.715312 28.7103056,27.0126661 32.0153195,27.0126661 C35.3203334,27.0126661 38.0229793,29.715312 38.0229793,33.0203259 C38.0229793,36.3253398 35.3203334,39.0279857 32.0153195,39.0279857 C28.7103056,39.0279857 26.0076598,36.3253398 26.0076598,33.0203259 Z" id="design" fill="url(#linearGradient-2)" fill-rule="nonzero"></path>
    </g>
</svg>