<?xml version="1.0" encoding="UTF-8"?>
<svg width="79px" height="79px" viewBox="0 0 79 79" version="1.1" xmlns="http://www.w3.org/2000/svg" xmlns:xlink="http://www.w3.org/1999/xlink">
    <!-- Generator: Sketch 49.3 (51167) - http://www.bohemiancoding.com/sketch -->
    <title>play-btn</title>
    <desc>Created with Sketch.</desc>
    <defs></defs>
    <g id="Page-1" stroke="none" stroke-width="1" fill="none" fill-rule="evenodd">
        <g id="Desktop-HD" transform="translate(-681.000000, -542.000000)" fill="#FFFFFF" fill-rule="nonzero">
            <g id="Header">
                <path d="M720.5,621 C698.699,621 681,603.301 681,581.5 C681,559.699 698.699,542 720.5,542 C742.301,542 760,559.699 760,581.5 C760,603.301 742.301,621 720.5,621 Z M721,547 C701.725231,547 686,562.725231 686,582 C686,601.274769 701.725231,617 721,617 C740.274769,617 756,601.274769 756,582 C756,562.725231 740.274769,547 721,547 Z M714.74552,592.029821 C713.83656,591.509314 713.25,590.534301 713.25,589.495861 L713.25,573.504561 C713.25,572.463521 713.833986,571.488521 714.74552,570.970601 C715.65448,570.450094 716.76156,570.450094 717.67052,570.970601 L731.32052,578.966251 C732.22948,579.486758 732.75,580.461771 732.75,581.500211 C732.75,582.541251 732.166014,583.516251 731.32052,584.034171 L717.67052,592.029821 C717.216027,592.291342 716.69552,592.420835 716.175,592.420835 C715.654493,592.420835 715.2,592.291342 714.74552,592.029821 Z" id="play-btn"></path>
            </g>
        </g>
    </g>
</svg>