<?xml version="1.0" encoding="UTF-8"?>
<svg class="grey" width="24px" height="20px" viewBox="0 0 24 20" version="1.1" xmlns="http://www.w3.org/2000/svg" xmlns:xlink="http://www.w3.org/1999/xlink">
    <!-- Generator: Sketch 49.3 (51167) - http://www.bohemiancoding.com/sketch -->
    <title>twitter</title>
    <desc>Created with Sketch.</desc>
    <defs></defs>
    <g id="Page-1" stroke="none" stroke-width="1" fill="none" fill-rule="evenodd">
        <g id="Desktop-HD" transform="translate(-786.000000, -4581.000000)" fill="#98A8B3" fill-rule="nonzero">
            <g id="Contact" transform="translate(150.000000, 3875.000000)">
                <g id="other-info" transform="translate(585.000000, 206.000000)">
                    <g id="social-icons" transform="translate(0.000000, 498.000000)">
                        <path d="M74.618296,4.32662022 C74.0850535,4.56350884 73.5315065,4.7503935 72.9635065,4.88569142 C73.5893773,4.28986467 74.0599508,3.54461226 74.325431,2.71277622 C74.4012072,2.47530139 74.1437435,2.26995102 73.9296976,2.39710059 C73.139518,2.86665709 72.2883664,3.2189124 71.399824,3.444194 C71.3482728,3.45726655 71.2950831,3.46389075 71.2417179,3.46389075 C71.0798669,3.46389075 70.9225214,3.40368669 70.7987633,3.29441662 C69.8534034,2.45970812 68.637531,2 67.3751981,2 C66.8289655,2 66.2774665,2.08529397 65.7359735,2.25353706 C64.0582463,2.77485616 62.7637305,4.16130819 62.3575815,5.87187732 C62.2052098,6.51348729 62.1639571,7.15568348 62.2348766,7.78058639 C62.2430101,7.85239746 62.2091303,7.90251866 62.1882406,7.9260258 C62.151552,7.96723656 62.0995326,7.99086094 62.0455238,7.99086094 C62.0394968,7.99086094 62.0332943,7.99056784 62.0271502,7.98998162 C58.3546645,7.6481609 55.042979,5.87562908 52.7021072,2.99896533 C52.5827377,2.85223626 52.353829,2.87023299 52.2586845,3.03372776 C51.8002821,3.82159784 51.5580321,4.72272425 51.5580321,5.6396784 C51.5580321,7.04494787 52.1215851,8.36926134 53.1004738,9.3346953 C52.6888244,9.236915 52.2903993,9.08291688 51.9202953,8.8769803 C51.7412409,8.77732411 51.5209339,8.90541162 51.5184178,9.11058612 C51.4927885,11.1982074 52.7128154,13.0557987 54.5404566,13.8922658 C54.503651,13.8931451 54.4668454,13.8935555 54.4299813,13.8935555 C54.1402761,13.8935555 53.846943,13.8655345 53.5582326,13.8102546 C53.3565917,13.7716818 53.1871923,13.9633148 53.2498027,14.1591685 C53.8430225,16.0145908 55.4376591,17.3822254 57.3459333,17.6927424 C55.7621804,18.7578325 53.9178626,19.3196589 51.9982951,19.3196589 L51.3998675,19.3193072 C51.2154883,19.3193072 51.0595473,19.4397153 51.0125601,19.6186275 C50.9662752,19.7948431 51.0515308,19.9807312 51.2087592,20.0723563 C53.3718054,21.333476 55.8390685,22 58.3448925,22 C60.5383078,22 62.5900595,21.5639163 64.4432131,20.703942 C66.142064,19.9155443 67.6433115,18.7885501 68.9052347,17.3542631 C70.0807906,16.0181667 71.0000531,14.4757821 71.6373928,12.7700199 C72.2449487,11.1440413 72.5660761,9.40908571 72.5660761,7.75268266 L72.5660761,7.67377841 C72.5660176,7.40781363 72.6860893,7.15755936 72.8955712,6.9872059 C73.6904904,6.34061312 74.3827167,5.57947434 74.9529403,4.72495186 C75.103498,4.49931853 74.8660463,4.21652944 74.618296,4.32662022 Z" id="twitter"></path>
                    </g>
                </g>
            </g>
        </g>
    </g>
</svg>
