<?xml version="1.0" encoding="UTF-8"?>
<svg width="120px" height="120px" viewBox="0 0 120 120" version="1.1" xmlns="http://www.w3.org/2000/svg" xmlns:xlink="http://www.w3.org/1999/xlink">
    <!-- Generator: Sketch 49.3 (51167) - http://www.bohemiancoding.com/sketch -->
    <title>Sections / Features / Icons / icon-4</title>
    <desc>Created with Sketch.</desc>
    <defs>
        <linearGradient x1="125.549072%" y1="124.983866%" x2="-23.6338408%" y2="-28.0527417%" id="linearGradient-1">
            <stop stop-color="#0080E5" offset="0%"></stop>
            <stop stop-color="#00C652" offset="100%"></stop>
        </linearGradient>
    </defs>
    <g id="Sections-/-Features-/-Icons-/-icon-4" stroke="none" stroke-width="1" fill="none" fill-rule="evenodd">
        <path d="M116.60049,29.059326 C113.17599,22.2951531 107.748688,17.4522939 101.738112,15.8667844 C97.648349,14.7807229 93.5552463,15.364531 90.1344197,17.451793 C88.4645834,18.0355845 86.7099194,18.4530268 84.9585951,18.7041702 L84.9585951,15.5308133 C84.9585951,14.2784361 85.2097218,12.1063131 86.6284314,12.1063131 C91.9705716,12.1063131 94.9776128,8.9329562 94.9776128,3.33967257 C94.9776128,1.50352059 93.4740922,0 91.6379403,0 C89.8017883,0 88.2982677,1.50352059 88.2982677,3.33967257 C88.2982677,5.17582455 88.2982677,5.42696793 86.6284314,5.42696793 C81.6189225,5.42696793 78.27925,9.51673096 78.27925,15.5311473 L78.27925,18.8708199 C75.5233522,18.6196932 72.852282,18.0359017 70.2626999,17.1161559 C66.8381997,14.9440329 62.6636089,14.3602581 58.4886843,15.4463196 C52.3931139,17.0313282 46.965979,21.9593491 43.4601577,28.8901716 C37.449415,40.911323 39.4518827,54.8577957 48.0522075,60.617061 C50.4721342,62.2020696 53.228032,63.0369878 56.0687575,63.0369878 C57.4059624,63.0369878 58.7398276,62.8706554 60.0770325,62.5347344 C65.8366319,61.0312138 71.0971171,56.5239917 74.6029384,50.177111 C78.1937543,48.8399061 82.2020294,48.758418 85.8743333,50.0107786 C89.2988336,56.187837 94.4748251,60.6134041 100.153103,62.03193 C104.327694,63.1179915 108.587446,62.4493891 112.008106,60.195778 C120.523436,54.6057506 122.526405,40.9141784 116.600156,29.0591757 L116.60049,29.059326 Z M108.33288,54.6904781 C105.994441,56.2754867 103.489687,56.109171 101.819851,55.6102239 C97.8115755,54.5241624 93.8881281,51.0181741 91.3833737,46.0938269 C90.8811204,45.1740811 90.1309965,44.5088183 89.2112507,44.1728472 L88.8818504,44.0032586 C83.2037391,41.7496476 76.7755373,41.9159633 71.1824207,44.3359234 C70.3475026,44.7533825 69.5974121,45.421985 69.179953,46.2569031 C66.5903709,51.266412 62.5854356,54.938382 58.4921659,56.0246105 C56.8223296,56.4420695 54.2327475,56.6931962 51.8128207,55.0233766 C46.1347094,51.266245 45.1334756,40.6636195 49.5592097,31.896979 C52.1487918,26.7211544 56.1537271,23.0451768 60.3279839,21.8779612 C60.9965696,21.7116289 61.8315045,21.5452965 62.7479106,21.5452965 C64.0851155,21.5452965 65.5852964,21.8779612 67.088817,22.7976737 C67.2551494,22.9640061 67.5062761,23.0488004 67.7574028,23.1303385 C75.6891252,26.2188677 84.5409273,26.3851834 92.6387984,23.6325918 L92.8899251,23.5477975 C93.1410517,23.4630032 93.3921784,23.2966709 93.6400489,23.1303385 C95.89366,21.7116456 98.3984144,21.8779612 100.068251,22.2954203 C104.158014,23.3814818 108.084801,27.0537858 110.589889,32.0631277 C114.930796,40.6636195 113.929562,51.0149346 108.333022,54.6910792 L108.33288,54.6904781 Z M99.2333576,27.5556384 C94.139021,27.5556384 90.049258,31.6454014 90.049258,36.739738 C90.049258,41.8340745 94.139021,45.9238376 99.2333576,45.9238376 C104.327694,45.9238376 108.417457,41.8340745 108.417457,36.739738 C108.417457,31.6454014 104.327694,27.5556384 99.2333576,27.5556384 Z M99.2333576,39.2444924 C97.8146647,39.2444924 96.7286032,38.1584309 96.7286032,36.739738 C96.7286032,35.3210451 97.8146647,34.2349835 99.2333576,34.2349835 C100.65205,34.2349835 101.738112,35.3210451 101.738112,36.739738 C101.738112,38.1584309 100.65205,39.2444924 99.2333576,39.2444924 Z M65.0017137,33.5662141 L63.3318774,33.5662141 L63.3318774,31.8963778 C63.3318774,30.0602258 61.8283568,28.5567053 59.9922049,28.5567053 C58.1560529,28.5567053 56.6525323,30.0602258 56.6525323,31.8963778 L56.6525323,33.5662141 L54.982696,33.5662141 C53.146544,33.5662141 51.6430234,35.0697347 51.6430234,36.9058867 C51.6430234,38.7420387 53.146544,40.2455593 54.982696,40.2455593 L56.6525323,40.2455593 L56.6525323,41.9153955 C56.6525323,43.7515475 58.1560529,45.2550681 59.9922049,45.2550681 C61.8283568,45.2550681 63.3318774,43.7515475 63.3318774,41.9153955 L63.3318774,40.2455593 L65.0017137,40.2455593 C66.8378657,40.2455593 68.3413863,38.7420387 68.3413863,36.9058867 C68.3413863,35.0697347 66.8378657,33.5662141 65.0017137,33.5662141 Z" id="controller-Copy" fill="url(#linearGradient-1)" fill-rule="nonzero" opacity="0.200000003"></path>
        <path d="M96.6004899,51.059326 C93.1759896,44.2951531 87.7486877,39.4522939 81.738112,37.8667844 C77.648349,36.7807229 73.5552463,37.364531 70.1344197,39.451793 C68.4645834,40.0355845 66.7099194,40.4530268 64.9585951,40.7041702 L64.9585951,37.5308133 C64.9585951,36.2784361 65.2097218,34.1063131 66.6284314,34.1063131 C71.9705716,34.1063131 74.9776128,30.9329562 74.9776128,25.3396726 C74.9776128,23.5035206 73.4740922,22 71.6379403,22 C69.8017883,22 68.2982677,23.5035206 68.2982677,25.3396726 C68.2982677,27.1758246 68.2982677,27.4269679 66.6284314,27.4269679 C61.6189225,27.4269679 58.27925,31.516731 58.27925,37.5311473 L58.27925,40.8708199 C55.5233522,40.6196932 52.852282,40.0359017 50.2626999,39.1161559 C46.8381997,36.9440329 42.6636089,36.3602581 38.4886843,37.4463196 C32.3931139,39.0313282 26.965979,43.9593491 23.4601577,50.8901716 C17.449415,62.911323 19.4518827,76.8577957 28.0522075,82.617061 C30.4721342,84.2020696 33.228032,85.0369878 36.0687575,85.0369878 C37.4059624,85.0369878 38.7398276,84.8706554 40.0770325,84.5347344 C45.8366319,83.0312138 51.0971171,78.5239917 54.6029384,72.177111 C58.1937543,70.8399061 62.2020294,70.758418 65.8743333,72.0107786 C69.2988336,78.187837 74.4748251,82.6134041 80.1531034,84.03193 C84.3276941,85.1179915 88.5874465,84.4493891 92.0081061,82.195778 C100.523436,76.6057506 102.526405,62.9141784 96.6001559,51.0591757 L96.6004899,51.059326 Z M88.33288,76.6904781 C85.9944412,78.2754867 83.4896868,78.109171 81.8198505,77.6102239 C77.8115755,76.5241624 73.8881281,73.0181741 71.3833737,68.0938269 C70.8811204,67.1740811 70.1309965,66.5088183 69.2112507,66.1728472 L68.8818504,66.0032586 C63.2037391,63.7496476 56.7755373,63.9159633 51.1824207,66.3359234 C50.3475026,66.7533825 49.5974121,67.421985 49.179953,68.2569031 C46.5903709,73.266412 42.5854356,76.938382 38.4921659,78.0246105 C36.8223296,78.4420695 34.2327475,78.6931962 31.8128207,77.0233766 C26.1347094,73.266245 25.1334756,62.6636195 29.5592097,53.896979 C32.1487918,48.7211544 36.1537271,45.0451768 40.3279839,43.8779612 C40.9965696,43.7116289 41.8315045,43.5452965 42.7479106,43.5452965 C44.0851155,43.5452965 45.5852964,43.8779612 47.088817,44.7976737 C47.2551494,44.9640061 47.5062761,45.0488004 47.7574028,45.1303385 C55.6891252,48.2188677 64.5409273,48.3851834 72.6387984,45.6325918 L72.8899251,45.5477975 C73.1410517,45.4630032 73.3921784,45.2966709 73.6400489,45.1303385 C75.89366,43.7116456 78.3984144,43.8779612 80.0682507,44.2954203 C84.1580137,45.3814818 88.0848007,49.0537858 90.5898891,54.0631277 C94.9307955,62.6636195 93.9295617,73.0149346 88.3330219,76.6910792 L88.33288,76.6904781 Z M79.2333576,49.5556384 C74.139021,49.5556384 70.049258,53.6454014 70.049258,58.739738 C70.049258,63.8340745 74.139021,67.9238376 79.2333576,67.9238376 C84.3276941,67.9238376 88.4174572,63.8340745 88.4174572,58.739738 C88.4174572,53.6454014 84.3276941,49.5556384 79.2333576,49.5556384 Z M79.2333576,61.2444924 C77.8146647,61.2444924 76.7286032,60.1584309 76.7286032,58.739738 C76.7286032,57.3210451 77.8146647,56.2349835 79.2333576,56.2349835 C80.6520505,56.2349835 81.738112,57.3210451 81.738112,58.739738 C81.738112,60.1584309 80.6520505,61.2444924 79.2333576,61.2444924 Z M45.0017137,55.5662141 L43.3318774,55.5662141 L43.3318774,53.8963778 C43.3318774,52.0602258 41.8283568,50.5567053 39.9922049,50.5567053 C38.1560529,50.5567053 36.6525323,52.0602258 36.6525323,53.8963778 L36.6525323,55.5662141 L34.982696,55.5662141 C33.146544,55.5662141 31.6430234,57.0697347 31.6430234,58.9058867 C31.6430234,60.7420387 33.146544,62.2455593 34.982696,62.2455593 L36.6525323,62.2455593 L36.6525323,63.9153955 C36.6525323,65.7515475 38.1560529,67.2550681 39.9922049,67.2550681 C41.8283568,67.2550681 43.3318774,65.7515475 43.3318774,63.9153955 L43.3318774,62.2455593 L45.0017137,62.2455593 C46.8378657,62.2455593 48.3413863,60.7420387 48.3413863,58.9058867 C48.3413863,57.0697347 46.8378657,55.5662141 45.0017137,55.5662141 Z" id="controller" fill="url(#linearGradient-1)" fill-rule="nonzero"></path>
    </g>
</svg>