<?xml version="1.0" encoding="UTF-8"?>
<svg width="120px" height="120px" viewBox="0 0 120 120" version="1.1" xmlns="http://www.w3.org/2000/svg" xmlns:xlink="http://www.w3.org/1999/xlink">
    <!-- Generator: Sketch 49.3 (51167) - http://www.bohemiancoding.com/sketch -->
    <title>Sections / Features / Icons / icon-2</title>
    <desc>Created with Sketch.</desc>
    <defs>
        <linearGradient x1="125.549072%" y1="124.983866%" x2="-23.6338408%" y2="-28.0527417%" id="linearGradient-1">
            <stop stop-color="#0080E5" offset="0%"></stop>
            <stop stop-color="#00C652" offset="100%"></stop>
        </linearGradient>
    </defs>
    <g id="Sections-/-Features-/-Icons-/-icon-2" stroke="none" stroke-width="1" fill="none" fill-rule="evenodd">
        <path d="M109.367867,5.44371754 C103.371676,5.44371754 98.4683443,10.2583999 98.4683443,16.3432398 C98.4683443,20.7037754 101.012293,24.6988136 105.099614,26.3344686 L105.099614,26.6076651 C105.007367,27.0618119 105.007367,27.5159586 104.918663,27.9701054 C104.556763,31.0568501 104.283566,33.5121492 102.740212,35.6906004 C101.558704,37.3262553 99.5611849,38.0536168 95.7470787,38.3231983 C93.4763449,38.5041486 91.1133284,38.5963948 88.7539452,38.6850988 C86.3909288,38.7773451 83.9392629,38.866049 81.3953144,39.0469993 C76.942587,39.5046975 71.3114397,40.4129819 67.6782656,44.9544495 L67.5860193,21.1582673 C73.2167125,19.1607482 76.2148078,12.891343 74.2172886,7.26046808 C72.2197695,1.53749224 66.0426469,-1.3683204 60.3194894,0.629198718 C54.5963319,2.62671784 51.6907009,8.89612306 53.6882201,14.5269979 C54.7774457,17.6137426 57.2291115,20.0690417 60.3194894,21.1582673 L60.3194894,57.8515091 C54.6887962,59.8490282 51.6907009,66.1184334 53.6882201,71.7493083 C55.6857392,77.3801832 61.9551444,80.3780968 67.5860193,78.3805777 C73.2168941,76.3830586 76.2148078,70.1136533 74.2172886,64.4827785 C73.4899453,62.3929767 72.1274869,60.6686723 70.4031825,59.306232 C70.7650829,55.3111938 71.4037586,51.8589517 73.3089951,49.4076492 C75.1255822,47.1369154 78.6664736,46.590486 81.9377836,46.3209045 C84.3008,46.1399542 86.6601833,46.0477079 89.0231997,45.959004 C91.3862162,45.8667577 93.7455994,45.7780538 96.1972653,45.5971035 C99.922722,45.323907 105.372846,44.4155953 108.551874,39.8741277 C111.095822,36.148671 111.549969,32.4268474 112.004116,28.793855 C112.096362,28.3397082 112.096362,27.8855614 112.185066,27.4314147 L112.277312,26.7963177 C116.996206,25.6077248 120.267425,21.2471892 120.267425,16.3436758 C120.267389,10.3470493 115.452707,5.44371754 109.367867,5.44371754 Z M63.9531903,7.26030459 C65.9507094,7.26030459 67.5863644,8.89595957 67.5863644,10.8934787 C67.5863644,12.8909978 65.9507094,14.5266528 63.9531903,14.5266528 C61.9556712,14.5266528 60.3200162,12.8909978 60.3200162,10.8934787 C60.3200162,8.89595957 61.9556712,7.26030459 63.9531903,7.26030459 Z M63.9531903,71.7491448 C61.9556712,71.7491448 60.3200162,70.1134898 60.3200162,68.1159707 C60.3200162,66.1184516 61.9556712,64.4827966 63.9531903,64.4827966 C65.9507094,64.4827966 67.5863644,66.1184516 67.5863644,68.1159707 C67.5863644,70.1134898 65.9507094,71.7491448 63.9531903,71.7491448 Z M109.367867,19.9764139 C107.370347,19.9764139 105.734692,18.3407589 105.734692,16.3432398 C105.734692,14.3457207 107.370347,12.7100657 109.367867,12.7100657 C111.365386,12.7100657 113.001041,14.3457207 113.001041,16.3432398 C113.001041,18.3407589 111.365386,19.9764139 109.367867,19.9764139 Z" id="dev-copy" fill="url(#linearGradient-1)" fill-rule="nonzero" opacity="0.200000003"></path>
        <path d="M82.3582979,25.4484965 C76.3568433,25.4484965 71.449207,30.2674056 71.449207,36.3575875 C71.449207,40.7219511 73.9953888,44.7204965 78.0862979,46.3575875 L78.0862979,46.6310238 C77.9939706,47.0855693 77.9939706,47.5401147 77.9051888,47.9946602 C77.5429706,51.0841147 77.2695343,53.5415693 75.7248252,55.7219329 C74.5422797,57.3590238 72.543007,58.0870238 68.7255524,58.356842 C66.4528252,58.5379511 64.0877343,58.6302784 61.7262797,58.7190602 C59.3611888,58.8113875 56.9073706,58.9001693 54.3611888,59.0812784 C49.9045524,59.5393784 44.2684615,60.4484602 40.6320979,64.9939147 L40.5397706,41.176842 C46.175407,39.1775693 49.1761343,32.9026602 47.1768615,27.266842 C45.1775888,21.538842 38.9950433,18.6304784 33.2668615,20.6297511 C27.5386797,22.6290238 24.6304979,28.9039329 26.6297706,34.5397511 C27.7199524,37.6292056 30.1737706,40.0866602 33.2668615,41.176842 L33.2668615,77.9022965 C27.6312252,79.9015693 24.6304979,86.1764784 26.6297706,91.8122965 C28.6290433,97.4481147 34.9039524,100.44866 40.5397706,98.4493875 C46.1755888,96.4501147 49.1761343,90.1752056 47.1768615,84.5393875 C46.4488797,82.4477511 45.0852252,80.7219329 43.359407,79.3582965 C43.7216252,75.3597511 44.3608615,71.9044784 46.2677706,69.4510238 C48.0859524,67.1782965 51.6299524,66.6313875 54.9041343,66.3615693 C57.2692252,66.1804602 59.6306797,66.0881329 61.9957706,65.9993511 C64.3608615,65.9070238 66.7223161,65.818242 69.1761343,65.6371329 C72.9048615,65.3636965 78.3597706,64.4545875 81.5415888,59.9091329 C84.0877706,56.1804056 84.5423161,52.4553147 84.9968615,48.8191329 C85.0891888,48.3645875 85.0891888,47.910042 85.1779706,47.4554965 L85.2702979,46.819842 C89.9933343,45.6302056 93.2674252,41.265842 93.2674252,36.3580238 C93.2673888,30.3561329 88.4484797,25.4484965 82.3582979,25.4484965 Z M36.9037524,27.2666784 C38.9030252,27.2666784 40.5401161,28.9037693 40.5401161,30.903042 C40.5401161,32.9023147 38.9030252,34.5394056 36.9037524,34.5394056 C34.9044797,34.5394056 33.2673888,32.9023147 33.2673888,30.903042 C33.2673888,28.9037693 34.9044797,27.2666784 36.9037524,27.2666784 Z M36.9037524,91.8121329 C34.9044797,91.8121329 33.2673888,90.175042 33.2673888,88.1757693 C33.2673888,86.1764965 34.9044797,84.5394056 36.9037524,84.5394056 C38.9030252,84.5394056 40.5401161,86.1764965 40.5401161,88.1757693 C40.5401161,90.175042 38.9030252,91.8121329 36.9037524,91.8121329 Z M82.3582979,39.9939511 C80.3590252,39.9939511 78.7219343,38.3568602 78.7219343,36.3575875 C78.7219343,34.3583147 80.3590252,32.7212238 82.3582979,32.7212238 C84.3575706,32.7212238 85.9946615,34.3583147 85.9946615,36.3575875 C85.9946615,38.3568602 84.3575706,39.9939511 82.3582979,39.9939511 Z" id="dev" fill="url(#linearGradient-1)" fill-rule="nonzero"></path>
    </g>
</svg>