<?xml version="1.0" encoding="UTF-8"?>
<svg width="120px" height="120px" viewBox="0 0 120 120" version="1.1" xmlns="http://www.w3.org/2000/svg" xmlns:xlink="http://www.w3.org/1999/xlink">
    <!-- Generator: Sketch 49.3 (51167) - http://www.bohemiancoding.com/sketch -->
    <title>Sections / Features / Icons / icon-3</title>
    <desc>Created with Sketch.</desc>
    <defs>
        <linearGradient x1="125.549072%" y1="124.983866%" x2="-23.6338408%" y2="-28.0527417%" id="linearGradient-1">
            <stop stop-color="#0080E5" offset="0%"></stop>
            <stop stop-color="#00C652" offset="100%"></stop>
        </linearGradient>
    </defs>
    <g id="Sections-/-Features-/-Icons-/-icon-3" stroke="none" stroke-width="1" fill="none" fill-rule="evenodd">
        <path d="M77.6170213,80 L98.0425532,80 C105.532596,80 111.659574,73.8730213 111.659574,66.3829787 L111.659574,13.6170213 C111.659574,6.12697872 105.532596,0 98.0425532,0 L77.6170213,0 C70.1269787,0 64,6.12697872 64,13.6170213 L64,66.3829787 C64,73.8730213 70.1269787,80 77.6170213,80 Z M107.404255,57.0212766 L68.2553191,57.0212766 L68.2553191,17.8723404 L107.404255,17.8723404 L107.404255,57.0212766 Z M99.5744681,74.893617 L76.0851064,74.893617 C71.7802894,74.893617 68.2553191,71.390541 68.2553191,67.112462 L68.2553191,61.2765957 L107.404255,61.2765957 L107.404255,67.112462 C107.404255,71.390541 103.978723,74.893617 99.5744681,74.893617 Z M76.0851064,4.25531915 L99.5744681,4.25531915 C103.879285,4.25531915 107.404255,8.46995745 107.404255,13.6170213 L68.2553191,13.6170213 C68.2553191,8.46995745 71.7802894,4.25531915 76.0851064,4.25531915 Z M92.0200946,64.8297872 C93.9483064,64.8297872 95.3723404,66.362383 95.3723404,68.2340426 C95.3723404,70.1057021 93.8631593,71.6382979 92.0200946,71.6382979 L83.6394799,71.6382979 C81.7964151,71.6382979 80.287234,70.1057021 80.287234,68.2340426 C80.287234,66.362383 81.7964151,64.8297872 83.6394799,64.8297872 L92.0200946,64.8297872 Z" id="phone-copy" fill="url(#linearGradient-1)" fill-rule="nonzero" opacity="0.200000003"></path>
        <path d="M49.6170213,100 L70.0425532,100 C77.5325957,100 83.6595745,93.8730213 83.6595745,86.3829787 L83.6595745,33.6170213 C83.6595745,26.1269787 77.5325957,20 70.0425532,20 L49.6170213,20 C42.1269787,20 36,26.1269787 36,33.6170213 L36,86.3829787 C36,93.8730213 42.1269787,100 49.6170213,100 Z M79.4042553,77.0212766 L40.2553191,77.0212766 L40.2553191,37.8723404 L79.4042553,37.8723404 L79.4042553,77.0212766 Z M71.5744681,94.893617 L48.0851064,94.893617 C43.7802894,94.893617 40.2553191,91.390541 40.2553191,87.112462 L40.2553191,81.2765957 L79.4042553,81.2765957 L79.4042553,87.112462 C79.4042553,91.390541 75.9787234,94.893617 71.5744681,94.893617 Z M48.0851064,24.2553191 L71.5744681,24.2553191 C75.8792851,24.2553191 79.4042553,28.4699574 79.4042553,33.6170213 L40.2553191,33.6170213 C40.2553191,28.4699574 43.7802894,24.2553191 48.0851064,24.2553191 Z M64.0200946,84.8297872 C65.9483064,84.8297872 67.3723404,86.362383 67.3723404,88.2340426 C67.3723404,90.1057021 65.8631593,91.6382979 64.0200946,91.6382979 L55.6394799,91.6382979 C53.7964151,91.6382979 52.287234,90.1057021 52.287234,88.2340426 C52.287234,86.362383 53.7964151,84.8297872 55.6394799,84.8297872 L64.0200946,84.8297872 Z" id="phone" fill="url(#linearGradient-1)" fill-rule="nonzero"></path>
    </g>
</svg>