<?xml version="1.0" encoding="UTF-8"?>
<svg class="behance-grey"width="24px" height="15px" viewBox="0 0 24 15" version="1.1" xmlns="http://www.w3.org/2000/svg" xmlns:xlink="http://www.w3.org/1999/xlink">
    <!-- Generator: Sketch 49.3 (51167) - http://www.bohemiancoding.com/sketch -->
    <title>behance</title>
    <desc>Created with Sketch.</desc>
    <defs></defs>
    <g id="Page-1" stroke="none" stroke-width="1" fill="none" fill-rule="evenodd">
        <g id="Desktop-HD" transform="translate(-937.000000, -4584.000000)" fill="#98A8B3" fill-rule="nonzero">
            <g id="Contact" transform="translate(150.000000, 3875.000000)">
                <g id="other-info" transform="translate(585.000000, 206.000000)">
                    <g id="social-icons" transform="translate(0.000000, 498.000000)">
                        <path d="M212.15711,11.3017968 C212.572516,10.646379 212.809719,9.86445181 212.796003,9.02611554 C212.759253,6.78275144 210.917436,5 208.703926,5 L202.524139,5 C202.23469,5 202,5.23789477 202,5.53129654 L202,19.3069584 C202,19.6003601 202.23469,19.8382549 202.524139,19.8382549 L209.427209,19.8382549 C211.989325,19.8382549 214.111691,17.756689 214.122161,15.1595871 C214.128601,13.5679262 213.34993,12.1567958 212.15711,11.3017968 Z M204.711107,7.74812766 L208.756696,7.74812766 C209.48935,7.74812766 210.085472,8.35233685 210.085472,9.09504824 C210.085472,9.83770656 209.489402,10.4419688 208.756696,10.4419688 L204.711107,10.4419688 L204.711107,7.74812766 Z M209.487413,17.0901273 L204.711107,17.0901273 L204.711107,13.1900965 L208.756696,13.1900965 L209.48736,13.1900965 C210.548099,13.1900965 211.411107,14.0648891 211.411107,15.1401119 C211.411107,16.2153347 210.548151,17.0901273 209.487413,17.0901273 Z M226,14.1826955 L226,14.2977956 C226,14.6023943 225.75641,14.8493103 225.455915,14.8493103 L217.659892,14.8493103 C217.943321,16.222074 219.081905,17.2518193 220.440155,17.2518193 C221.159198,17.2518193 221.791913,17.0113773 222.30799,16.50274 C222.351337,16.4600219 222.408661,16.4349747 222.469127,16.4351339 L225.202169,16.4420325 C225.375242,16.442457 225.489786,16.6261184 225.414296,16.7839366 C225.310274,17.0013479 225.19306,17.2122851 225.064015,17.4141481 C224.028928,19.0333502 222.300399,20 220.440155,20 C217.374474,20 214.88031,17.3903215 214.88031,14.1826955 C214.88031,10.9750696 217.374422,8.36544414 220.440155,8.36544414 C223.505888,8.36544414 226,10.9750165 226,14.1826955 Z M220.440155,11.1135718 C219.445432,11.1135718 218.568603,11.6661478 218.058965,12.5009817 L222.821398,12.5009817 C222.311707,11.6661478 221.434931,11.1135718 220.440155,11.1135718 Z M222.75041,7.68259118 L217.819092,7.68259118 C217.589009,7.68259118 217.402482,7.49351711 217.402482,7.26029215 L217.402482,6.00629009 C217.402482,5.77306513 217.589009,5.58399106 217.819092,5.58399106 L222.75041,5.58399106 C222.980493,5.58399106 223.16702,5.77306513 223.16702,6.00629009 L223.16702,7.26029215 C223.16702,7.49357017 222.980493,7.68259118 222.75041,7.68259118 Z" id="behance"></path>
                    </g>
                </g>
            </g>
        </g>
    </g>
</svg>
