<?xml version="1.0" encoding="UTF-8"?>
<svg width="24px" height="24px" viewBox="0 0 24 24" version="1.1" xmlns="http://www.w3.org/2000/svg" xmlns:xlink="http://www.w3.org/1999/xlink">
    <!-- Generator: Sketch 49.3 (51167) - http://www.bohemiancoding.com/sketch -->
    <title>dribbble</title>
    <desc>Created with Sketch.</desc>
    <defs></defs>
    <g id="Page-1" stroke="none" stroke-width="1" fill="none" fill-rule="evenodd">
        <g id="Desktop-HD" transform="translate(-886.000000, -4576.000000)" fill="#98A8B3" fill-rule="nonzero">
            <g id="Contact" transform="translate(150.000000, 3872.000000)">
                <g id="other-info" transform="translate(585.000000, 200.000000)">
                    <g id="social-icons" transform="translate(0.000000, 504.000000)">
                        <path d="M173.39105,5.97643968 C172.317943,4.13802351 170.862341,2.68242827 169.023861,1.60938034 C167.185054,0.536387144 165.177738,0 163.000383,0 C160.823247,0 158.815329,0.536387144 156.97685,1.60938034 C155.138261,2.68226409 153.682659,4.13785932 152.609552,5.97643968 C151.53639,7.8151295 151,9.82303767 151,12 C151,14.1770718 151.536554,16.1846516 152.609388,18.0234509 C153.682441,19.861867 155.138042,21.3174623 156.976631,22.3906197 C158.815329,23.4635581 160.823082,24 163.000164,24 C165.177246,24 167.185218,23.4635581 169.023807,22.3906197 C170.862286,21.3178454 172.317833,19.861867 173.390831,18.0234509 C174.463665,16.1848158 175,14.1769623 175,12 C175.000055,9.82281876 174.463665,7.81485586 173.39105,5.97643968 Z M163.000219,1.75003078 C165.583437,1.75003078 167.838726,2.60416752 169.765755,4.31238627 L169.57043,4.58564216 C169.492334,4.69520721 169.297009,4.90590923 168.984621,5.21856914 C168.672179,5.53095541 168.331004,5.8280179 167.961262,6.10920932 C167.591191,6.3905102 167.088897,6.71077727 166.45323,7.07017472 C165.817783,7.42957217 165.140742,7.74485901 164.421889,8.01565215 C163.224057,5.80711188 161.942928,3.81753752 160.578284,2.04681963 C161.401339,1.84892391 162.208578,1.75003078 163.000219,1.75003078 Z M154.969097,5.64024682 C155.969033,4.38008455 157.187608,3.41118363 158.625259,2.73420077 C159.916895,4.45292725 161.187626,6.4218145 162.437724,8.64047942 C159.27105,9.47381959 156.114883,9.89051704 152.969006,9.89035291 C153.302518,8.31753068 153.969161,6.90068273 154.969097,5.64024682 Z M153.437587,15.695604 C152.979185,14.5237724 152.750039,13.2917949 152.750039,12 C152.750039,11.8540957 152.755402,11.7446948 152.765691,11.6718521 C156.536727,11.6718521 160.042059,11.1876206 163.281631,10.2186649 C163.615034,10.8644529 163.891082,11.4425974 164.10983,11.953153 C164.067635,11.9739496 164.000429,11.9972636 163.906625,12.0233688 C163.812547,12.0494192 163.745013,12.0674794 163.702982,12.0780418 L163.124999,12.2811367 C162.728987,12.427041 162.210603,12.6770923 161.57023,13.0310717 C160.929693,13.3855984 160.250025,13.8072213 159.531227,14.2969257 C158.812429,14.7866847 158.070207,15.4350997 157.304671,16.2426631 C156.539026,17.0498981 155.895807,17.9168411 155.37496,18.8438753 C154.541616,17.9168411 153.89588,16.8671072 153.437587,15.695604 Z M163.000219,22.2501334 C160.562632,22.2501334 158.38555,21.4687846 156.46881,19.9064155 L156.70321,20.0783702 C157.067753,19.2760607 157.604143,18.5051649 158.312652,17.7657377 C159.021052,17.0263104 159.703292,16.4296679 160.359536,15.9764123 C161.01578,15.5235945 161.729269,15.0965535 162.500223,14.6950157 C163.271013,14.294244 163.796786,14.0387746 164.078307,13.9297569 C164.359609,13.8204107 164.583611,13.7342692 164.750258,13.6716606 L164.781343,13.6559537 L164.812812,13.6559537 C165.833326,16.3330186 166.562851,18.9269521 167.000182,21.4373709 C165.708491,21.9792855 164.375371,22.2499692 163.000219,22.2501334 Z M171.625688,17.5391099 C170.854788,18.7319569 169.891027,19.7191369 168.735116,20.5001026 C168.30769,18.1043385 167.641376,15.6613444 166.734861,13.1719411 C168.807795,12.848664 170.937975,12.9999863 173.12551,13.6247589 C172.896254,15.0414426 172.396204,16.3464817 171.625688,17.5391099 Z M173.094041,11.8594043 C172.989894,11.8387172 172.859531,11.8150748 172.703337,11.7891885 C172.547144,11.7633023 172.356854,11.7318885 172.132852,11.6954398 C171.909179,11.6589911 171.658798,11.625224 171.382969,11.5939197 C171.106866,11.5626702 170.812648,11.5341023 170.499877,11.5080518 C170.187489,11.4818919 169.854086,11.4612596 169.500105,11.445498 C169.145522,11.4299553 168.786342,11.4220745 168.421689,11.4220745 C168.057419,11.4220745 167.674268,11.4326369 167.27344,11.453324 C166.872502,11.473847 166.484589,11.5107335 166.109648,11.5627249 C166.078179,11.5105693 166.039213,11.4245919 165.992365,11.3047381 C165.945573,11.1850484 165.911423,11.0937624 165.891228,11.0312633 C165.693058,10.5937692 165.463802,10.0989205 165.203132,9.54699066 C165.92193,9.25512731 166.607016,8.91931754 167.258444,8.53901408 C167.90927,8.15871061 168.429734,7.82038337 168.820601,7.52353979 C169.211305,7.22636785 169.581048,6.91124519 169.929939,6.57800763 C170.279049,6.24471535 170.505295,6.01305258 170.609826,5.88280042 C170.714137,5.75232935 170.813031,5.62481358 170.90667,5.49997948 L170.922377,5.48421787 C172.44316,7.33839565 173.219532,9.47371013 173.250399,11.8905991 L173.094041,11.8594043 Z" id="dribbble"></path>
                    </g>
                </g>
            </g>
        </g>
    </g>
</svg>