<?xml version="1.0" encoding="UTF-8"?>
<svg class="instagram-grey" width="24px" height="24px" viewBox="0 0 24 24" version="1.1" xmlns="http://www.w3.org/2000/svg" xmlns:xlink="http://www.w3.org/1999/xlink">
    <!-- Generator: Sketch 49.3 (51167) - http://www.bohemiancoding.com/sketch -->
    <title>instagram</title>
    <desc>Created with Sketch.</desc>
    <defs></defs>
    <g id="Page-1" stroke="none" stroke-width="1" fill="none" fill-rule="evenodd">
        <g id="Desktop-HD" transform="translate(-836.000000, -4580.000000)" fill="#98A8B3" fill-rule="nonzero">
            <g id="Contact" transform="translate(150.000000, 3875.000000)">
                <g id="other-info" transform="translate(585.000000, 206.000000)">
                    <g id="social-icons" transform="translate(0.000000, 498.000000)">
                        <path d="M118.376726,1 L107.62299,1 C103.971076,1 101,3.97121766 101,7.62313234 L101,18.3768677 C101,22.0289243 103.971076,25 107.62299,25 L118.376726,25 C122.028924,25 125,22.0287823 125,18.3768677 L125,7.62313234 C125.000142,3.97121766 122.028924,1 118.376726,1 Z M118.376868,22.8706037 L107.62299,22.8706037 C105.145225,22.8707456 103.129396,20.8547752 103.129396,18.3768677 L103.129396,7.62313234 C103.129396,5.14536679 105.145225,3.12939632 107.62299,3.12939632 L118.376726,3.12939632 C120.854633,3.12939632 122.870604,5.14536679 122.870604,7.62313234 L122.870604,18.3768677 C122.870746,20.8547752 120.854775,22.8706037 118.376868,22.8706037 Z M113,7 C109.69155,7 107,9.69161196 107,13.0001377 C107,16.3085258 109.69155,19 113,19 C116.30845,19 119,16.3085258 119,13.0001377 C119,9.69161196 116.30845,7 113,7 Z M113,16.9338414 C110.830866,16.9338414 109.065973,15.1691842 109.065973,13 C109.065973,10.8306781 110.830728,9.06588311 113,9.06588311 C115.169272,9.06588311 116.934027,10.8306781 116.934027,13 C116.934027,15.1691842 115.169134,16.9338414 113,16.9338414 Z M119.857143,5.28571429 C119.406753,5.28571429 118.964312,5.46805195 118.646234,5.78753247 C118.326597,6.10545455 118.142857,6.54805195 118.142857,7 C118.142857,7.45054545 118.326753,7.89298701 118.646234,8.21246753 C118.964156,8.53038961 119.406753,8.71428571 119.857143,8.71428571 C120.309091,8.71428571 120.75013,8.53038961 121.06961,8.21246753 C121.389091,7.89298701 121.571429,7.45038961 121.571429,7 C121.571429,6.54805195 121.389091,6.10545455 121.06961,5.78753247 C120.751688,5.46805195 120.309091,5.28571429 119.857143,5.28571429 Z" id="instagram"></path>
                    </g>
                </g>
            </g>
        </g>
    </g>
</svg>
