<?xml version="1.0" encoding="UTF-8"?>
<svg class="instagram-color" width="24px" height="24px" viewBox="0 0 24 24" version="1.1" xmlns="http://www.w3.org/2000/svg" xmlns:xlink="http://www.w3.org/1999/xlink">
    <!-- Generator: Sketch 49.3 (51167) - http://www.bohemiancoding.com/sketch -->
    <title>instagram</title>
    <desc>Created with Sketch.</desc>
    <defs>
        <linearGradient x1="50%" y1="99.7089109%" x2="50%" y2="0.776721582%" id="linearGradient-1">
            <stop stop-color="#E09B3D" offset="0%"></stop>
            <stop stop-color="#C74C4D" offset="30%"></stop>
            <stop stop-color="#C21975" offset="60%"></stop>
            <stop stop-color="#7024C4" offset="100%"></stop>
        </linearGradient>
    </defs>
    <g id="Symbols" stroke="none" stroke-width="1" fill="none" fill-rule="evenodd">
        <g id="Sections-/-Team-/-card-hover" transform="translate(-170.000000, -342.000000)" fill="url(#linearGradient-1)" fill-rule="nonzero">
            <path d="M187.376726,342 L176.62299,342 C172.971076,342 170,344.971218 170,348.623132 L170,359.376868 C170,363.028924 172.971076,366 176.62299,366 L187.376726,366 C191.028924,366 194,363.028782 194,359.376868 L194,348.623132 C194.000142,344.971218 191.028924,342 187.376726,342 Z M187.376868,363.870604 L176.62299,363.870604 C174.145225,363.870746 172.129396,361.854775 172.129396,359.376868 L172.129396,348.623132 C172.129396,346.145367 174.145225,344.129396 176.62299,344.129396 L187.376726,344.129396 C189.854633,344.129396 191.870604,346.145367 191.870604,348.623132 L191.870604,359.376868 C191.870746,361.854775 189.854775,363.870604 187.376868,363.870604 Z M182,348 C178.69155,348 176,350.691612 176,354.000138 C176,357.308526 178.69155,360 182,360 C185.30845,360 188,357.308526 188,354.000138 C188,350.691612 185.30845,348 182,348 Z M182,357.933841 C179.830866,357.933841 178.065973,356.169184 178.065973,354 C178.065973,351.830678 179.830728,350.065883 182,350.065883 C184.169272,350.065883 185.934027,351.830678 185.934027,354 C185.934027,356.169184 184.169134,357.933841 182,357.933841 Z M188.857143,346.285714 C188.406753,346.285714 187.964312,346.468052 187.646234,346.787532 C187.326597,347.105455 187.142857,347.548052 187.142857,348 C187.142857,348.450545 187.326753,348.892987 187.646234,349.212468 C187.964156,349.53039 188.406753,349.714286 188.857143,349.714286 C189.309091,349.714286 189.75013,349.53039 190.06961,349.212468 C190.389091,348.892987 190.571429,348.45039 190.571429,348 C190.571429,347.548052 190.389091,347.105455 190.06961,346.787532 C189.751688,346.468052 189.309091,346.285714 188.857143,346.285714 Z" id="instagram"></path>
        </g>
    </g>
</svg>
