<?xml version="1.0" encoding="UTF-8"?>
<svg class="facebook-color" width="24px" height="24px" viewBox="0 0 24 24" version="1.1" xmlns="http://www.w3.org/2000/svg" xmlns:xlink="http://www.w3.org/1999/xlink">
    <!-- Generator: Sketch 49.3 (51167) - http://www.bohemiancoding.com/sketch -->
    <title>facebook</title>
    <desc>Created with Sketch.</desc>
    <defs></defs>
    <g id="Symbols" stroke="none" stroke-width="1" fill="none" fill-rule="evenodd">
        <g id="Sections-/-Team-/-card-hover" transform="translate(-68.000000, -341.000000)" fill="#3B579D" fill-rule="nonzero">
            <path d="M88.7658696,341 L71.2340717,341 C69.4479788,341 68,342.447909 68,344.234048 L68,361.765835 C68,363.551973 69.4479201,364.999883 71.2340717,364.999883 L79.8806708,364.999883 L79.8954071,356.423623 L77.6672823,356.423623 C77.3777218,356.423623 77.1427034,356.189487 77.1415879,355.899929 L77.1309026,353.135444 C77.1297871,352.844301 77.36551,352.607699 77.6566557,352.607699 L79.8807295,352.607699 L79.8807295,349.936505 C79.8807295,346.83661 81.7739692,345.148693 84.5392957,345.148693 L86.8084592,345.148693 C87.098783,345.148693 87.3342124,345.384062 87.3342124,345.674442 L87.3342124,348.00547 C87.3342124,348.295733 87.0989591,348.531043 86.8087528,348.531219 L85.4161968,348.531865 C83.9123256,348.531865 83.6211211,349.246485 83.6211211,350.295224 L83.6211211,352.607758 L86.9256455,352.607758 C87.2405103,352.607758 87.484805,352.882697 87.4476999,353.195387 L87.1200362,355.959872 C87.0886848,356.22442 86.8643517,356.42374 86.5979818,356.42374 L83.6358575,356.42374 L83.6211211,365 L88.765987,365 C90.5520799,365 92,363.552091 92,361.766011 L92,344.234048 C91.9999413,342.447909 90.5520212,341 88.7658696,341 Z" id="facebook"></path>
        </g>
    </g>
</svg>
