<?xml version="1.0" encoding="UTF-8"?>
<svg class="color" width="24px" height="20px" viewBox="0 0 24 20" version="1.1" xmlns="http://www.w3.org/2000/svg" xmlns:xlink="http://www.w3.org/1999/xlink">
    <!-- Generator: Sketch 49.3 (51167) - http://www.bohemiancoding.com/sketch -->
    <title>twitter</title>
    <desc>Created with Sketch.</desc>
    <defs></defs>
    <g id="Symbols" stroke="none" stroke-width="1" fill="none" fill-rule="evenodd">
        <g id="Sections-/-Team-/-card-hover" transform="translate(-119.000000, -343.000000)" fill="#55ACEE" fill-rule="nonzero">
            <path d="M142.569731,345.317606 C142.037585,345.553577 141.485177,345.739737 140.918345,345.874511 C141.542928,345.280993 142.012534,344.538628 142.277469,343.710015 C142.353089,343.47346 142.096155,343.268905 141.882549,343.395562 C141.093994,343.863299 140.244593,344.21419 139.357877,344.438599 C139.306432,344.45162 139.253352,344.458219 139.200096,344.458219 C139.038578,344.458219 138.881556,344.398248 138.758053,344.289401 C137.814636,343.457927 136.601264,343 135.341527,343 C134.796418,343 134.246053,343.084964 133.705673,343.252555 C132.031396,343.771854 130.739542,345.152934 130.334228,346.856876 C130.182169,347.496 130.141001,348.135708 130.211775,348.75819 C130.219892,348.829723 130.186082,348.87965 130.165235,348.903066 C130.128622,348.944117 130.076709,348.96765 130.022812,348.96765 C130.016797,348.96765 130.010607,348.967358 130.004476,348.966774 C126.339542,348.626277 123.034666,346.860613 120.698607,343.995095 C120.579483,343.848934 120.351045,343.866861 120.256096,344.029723 C119.798636,344.81454 119.556885,345.712175 119.556885,346.625577 C119.556885,348.025401 120.119279,349.344584 121.096155,350.306277 C120.685352,350.208876 120.287746,350.055474 119.918403,349.850336 C119.739717,349.751066 119.519863,349.878657 119.517352,350.083036 C119.491775,352.162569 120.709293,354.012964 122.533177,354.84619 C122.496447,354.847066 122.459717,354.847474 122.422928,354.847474 C122.133819,354.847474 121.841089,354.819562 121.552972,354.764496 C121.351746,354.726073 121.182695,354.916964 121.245177,355.112058 C121.837177,356.960292 123.428534,358.322628 125.332885,358.631942 C123.752388,359.692905 121.911863,360.252555 119.996242,360.252555 L119.399045,360.252204 C119.215045,360.252204 119.059425,360.372146 119.012534,360.550365 C118.966345,360.725898 119.051425,360.911066 119.20833,361.002336 C121.366928,362.258569 123.829118,362.922511 126.32979,362.922511 C128.518695,362.922511 130.566228,362.488117 132.415571,361.631474 C134.110928,360.846131 135.609089,359.723504 136.868418,358.294774 C138.041556,356.963854 138.958928,355.427445 139.594958,353.728292 C140.201264,352.108613 140.521731,350.38038 140.521731,348.730394 L140.521731,348.651796 C140.521673,348.386861 140.641498,348.137577 140.850549,347.967883 C141.643834,347.323796 142.334636,346.565606 142.903688,345.714394 C143.053936,345.489635 142.816972,345.207942 142.569731,345.317606 Z" id="twitter"></path>
        </g>
    </g>
</svg>
